Coordinates
version=1
nRows=7
nColumns=40
inDegrees=yes

Units are S.I. units (second, meters, Newtons, ...)
If the header above contains a line with 'inDegrees', this indicates whether rotational values are in degrees (yes) or radians (no).

endheader
time	pelvis_tilt	pelvis_list	pelvis_rotation	pelvis_tx	pelvis_ty	pelvis_tz	hip_flexion_r	hip_adduction_r	hip_rotation_r	knee_angle_r	knee_angle_r_beta	ankle_angle_r	subtalar_angle_r	mtp_angle_r	hip_flexion_l	hip_adduction_l	hip_rotation_l	knee_angle_l	knee_angle_l_beta	ankle_angle_l	subtalar_angle_l	mtp_angle_l	lumbar_extension	lumbar_bending	lumbar_rotation	arm_flex_r	arm_add_r	arm_rot_r	elbow_flex_r	pro_sup_r	wrist_flex_r	wrist_dev_r	arm_flex_l	arm_add_l	arm_rot_l	elbow_flex_l	pro_sup_l	wrist_flex_l	wrist_dev_l
      6.37500000	     -0.74731500	     -5.40534649	     -7.22053207	     -0.28052103	      0.91828691	     -0.99394390	      6.02350394	     -2.75375476	     -2.70692422	     87.50349358	      1.52722407	    -20.39829278	      0.00000000	      0.00000000	     31.38575399	     -7.06087238	     -9.45959135	     66.31317001	      1.15738315	     22.41267052	      0.00000000	      0.00000000	    -13.50993350	     -0.19573612	     10.32157436	     89.89407619	    -16.60769270	     32.08391332	     34.28716660	     85.08638596	      0.00000000	      0.00000000	     89.92940754	    -20.15534486	     41.20724190	     49.26487607	     81.53620958	      0.00000000	      0.00000000
      6.38000000	     -0.75740187	     -5.47843381	     -7.17930377	     -0.28037569	      0.91940459	     -0.99397930	      6.04118067	     -2.68331094	     -2.74438302	     87.51301013	      1.52739017	    -20.42613565	      0.00000000	      0.00000000	     31.27620811	     -7.13827198	     -9.46827923	     66.10132121	      1.15368569	     22.31203688	      0.00000000	      0.00000000	    -13.47103841	     -0.12279193	     10.28565101	     89.89333460	    -16.64187550	     32.16712038	     34.25275031	     85.09231455	      0.00000000	      0.00000000	     89.92898782	    -20.16320995	     41.30022503	     49.24737406	     81.54389238	      0.00000000	      0.00000000
      6.38500000	     -0.77012936	     -5.49098763	     -7.16111501	     -0.28002053	      0.92043779	     -0.99407539	      6.04798697	     -2.69210833	     -2.72814890	     87.48704188	      1.52693693	    -20.42922953	      0.00000000	      0.00000000	     31.22540190	     -7.14823843	     -9.47379782	     66.03340200	      1.15250028	     22.28395285	      0.00000000	      0.00000000	    -13.40622261	     -0.10138040	     10.27242062	     89.89101180	    -16.64489153	     32.16537254	     34.27374029	     85.09117409	      0.00000000	      0.00000000	     89.92811038	    -20.16297457	     41.29501974	     49.26168398	     81.54453267	      0.00000000	      0.00000000
      6.39000000	     -0.73680688	     -5.55870454	     -7.13146401	     -0.27959986	      0.92168401	     -0.99419730	      6.00903964	     -2.62294312	     -2.72449825	     87.46723472	      1.52659123	    -20.49653939	      0.00000000	      0.00000000	     30.94137852	     -7.18601553	     -9.49474713	     65.57281524	      1.14446153	     22.07210443	      0.00000000	      0.00000000	    -13.38953989	     -0.03199779	     10.22635436	     89.88989902	    -16.66623578	     32.38839318	     34.12682419	     85.11481676	      0.00000000	      0.00000000	     89.92764573	    -20.21279768	     41.50311392	     49.20035942	     81.55858334	      0.00000000	      0.00000000
      6.39500000	     -0.70143370	     -5.61636180	     -7.10721808	     -0.27937857	      0.92282730	     -0.99423906	      5.97857572	     -2.56108448	     -2.73050292	     87.45579811	      1.52639163	    -20.55476756	      0.00000000	      0.00000000	     30.76013993	     -7.23772984	     -9.51458490	     65.32564715	      1.14014763	     21.90919964	      0.00000000	      0.00000000	    -13.37481406	      0.03299741	     10.18306460	     89.89067299	    -16.65493754	     32.59842175	     34.05883293	     85.13762440	      0.00000000	      0.00000000	     89.92739920	    -20.25936615	     41.68340459	     49.15866408	     81.57187927	      0.00000000	      0.00000000
      6.40000000	     -0.56251992	     -5.62170125	     -7.12165840	     -0.27890047	      0.92412586	     -0.99429061	      5.79794774	     -2.57455400	     -2.66118259	     87.36992202	      1.52489281	    -20.64904178	      0.00000000	      0.00000000	     30.44750302	     -7.24790493	     -9.61596469	     65.09147695	      1.13606059	     21.68927387	      0.00000000	      0.00000000	    -13.43453792	      0.02334091	     10.16605000	     89.89142958	    -16.67819891	     33.07398913	     33.95588395	     85.16232546	      0.00000000	      0.00000000	     89.92739976	    -20.35920927	     42.08056019	     49.11077196	     81.60969120	      0.00000000	      0.00000000
      6.40500000	     -0.58475665	     -5.63118817	     -7.10318236	     -0.27862260	      0.92507795	     -0.99436725	      5.81415566	     -2.57690385	     -2.66367320	     87.35161501	      1.52457329	    -20.65055775	      0.00000000	      0.00000000	     30.40840911	     -7.26190875	     -9.62862954	     65.03218607	      1.13502577	     21.67497298	      0.00000000	      0.00000000	    -13.36684754	      0.03479131	     10.14499841	     89.88961109	    -16.69295628	     33.05402119	     33.98463536	     85.15857129	      0.00000000	      0.00000000	     89.92687161	    -20.35752678	     42.05715424	     49.12810803	     81.60951021	      0.00000000	      0.00000000
